<svg width="30" height="30" viewBox="0 0 30 30" fill="none" xmlns="http://www.w3.org/2000/svg">
<circle cx="15" cy="15" r="15" fill="#383838"/>
<path d="M6.4813 17.5344C6.4813 17.5344 11.5119 21.0936 11.8177 21.2711C12.113 21.4485 12.5454 21.4902 12.9251 21.3441C13.3047 21.198 13.5895 20.864 13.6738 20.53C13.7688 20.196 14.9183 14.1839 14.9183 14.1839C14.9288 14.1004 14.9605 13.8603 14.8339 13.6307C14.6546 13.3176 14.2539 13.1506 13.8953 13.2549C13.6106 13.3384 13.4629 13.5472 13.4207 13.6203C13.3574 13.7351 13.2414 13.923 13.0305 14.09C12.8723 14.2152 12.7141 14.2883 12.6403 14.3196C11.997 14.5805 11.2798 14.3613 10.8685 13.8395C10.6154 13.5159 10.1619 13.3906 9.76118 13.5472C9.36042 13.7038 9.12841 14.1108 9.16005 14.5179C9.23387 15.165 8.86475 15.8122 8.21088 16.0731C7.86286 16.2088 7.49374 16.2088 7.16681 16.1044C7.09298 16.0835 6.82933 16.0209 6.56567 16.167C6.23874 16.334 6.07 16.7307 6.15437 17.0856C6.21764 17.3256 6.40748 17.4822 6.4813 17.5344Z" fill="#FF9538"/>
<path d="M14.8644 9.73755C14.8644 9.73755 16.6572 15.6035 16.7838 15.9166C16.9103 16.2402 17.2267 16.5325 17.6169 16.6473C18.0071 16.7621 18.4395 16.6682 18.7137 16.4594C18.9879 16.2506 23.6177 12.1904 23.6177 12.1904C23.681 12.1382 23.8498 11.9608 23.8919 11.6998C23.9447 11.345 23.7232 10.9692 23.3857 10.8335C23.1115 10.7291 22.8584 10.8022 22.7846 10.8335C22.6686 10.8857 22.4577 10.9588 22.194 10.9692C21.9831 10.9796 21.8249 10.9379 21.7405 10.917C21.0761 10.7291 20.6332 10.1237 20.6332 9.46617C20.6226 9.0591 20.3484 8.68335 19.9371 8.56854C19.5153 8.45372 19.0829 8.63116 18.8614 8.9756C18.5134 9.53924 17.8279 9.82105 17.1529 9.63318C16.7943 9.5288 16.499 9.30961 16.3092 9.02779C16.2565 8.96517 16.0877 8.75641 15.7924 8.70422C15.4339 8.6416 15.0437 8.85035 14.896 9.17392C14.78 9.42442 14.8433 9.65405 14.8644 9.73755Z" fill="#FF9538"/>
</svg>
